<?xml version="1.0" encoding="UTF-8" standalone="no" ?>
<!DOCTYPE svg PUBLIC "-//W3C//DTD SVG 1.1//EN" "http://www.w3.org/Graphics/SVG/1.1/DTD/svg11.dtd">
<svg xmlns="http://www.w3.org/2000/svg" xmlns:xlink="http://www.w3.org/1999/xlink" version="1.1" width="884.6597778320313" height="221.8142" xml:space="preserve">
<desc>Created with Fabric.js 1.6.0-rc.1</desc>
<defs></defs>
<g style="stroke: none; stroke-width: 1; stroke-dasharray: none; stroke-linecap: butt; stroke-linejoin: miter; stroke-miterlimit: 10; fill: none; fill-rule: nonzero; opacity: 1;" transform="translate(10 10) scale(3.74 3.42)" >
  <path d="M 17.575 29.007 c -1.247 -0.43 -2.42 -1.13 -3.411 -2.121 l -5.657 -5.657 c -0.344 -0.344 -0.644 -0.714 -0.92 -1.097 c 0 0 -0.001 -0.001 -0.001 -0.001 C 3.303 20.815 0 24.539 0 29.007 c 0 4.95 4.05 9 9 9 h 8 c 4.95 0 9 -4.05 9 -9 c 0 -0.435 -0.042 -0.859 -0.102 -1.278 c -0.749 0.557 -1.563 0.983 -2.417 1.278 C 21.571 28.348 19.485 28.348 17.575 29.007 z" style="stroke: none; stroke-width: 1; stroke-dasharray: none; stroke-linecap: butt; stroke-linejoin: miter; stroke-miterlimit: 10; fill: #BF4D90; fill-rule: nonzero; opacity: 1;" transform=" matrix(1 0 0 1 0 0) " stroke-linecap="round" />
  <path d="M 37.888 7.58 c -0.69 -4.277 -4.411 -7.574 -8.875 -7.574 s -8.185 3.297 -8.875 7.574 c 0.383 0.276 0.753 0.576 1.097 0.92 l 5.657 5.657 c 0.991 0.991 1.692 2.164 2.121 3.411 c 0.658 1.91 0.658 3.996 0 5.906 c -0.296 0.858 -0.724 1.677 -1.285 2.429 c 0.421 0.061 0.848 0.104 1.285 0.104 s 0.864 -0.042 1.285 -0.104 c 0.929 -0.135 1.811 -0.411 2.627 -0.809 c 1.816 -0.885 3.291 -2.36 4.176 -4.176 c 0.578 -1.186 0.912 -2.51 0.912 -3.912 v -8 C 38.013 8.52 37.963 8.046 37.888 7.58 z" style="stroke: none; stroke-width: 1; stroke-dasharray: none; stroke-linecap: butt; stroke-linejoin: miter; stroke-miterlimit: 10; fill: #ED8A19; fill-rule: nonzero; opacity: 1;" transform=" matrix(1 0 0 1 0 0) " stroke-linecap="round" />
  <path d="M 36.791 49.513 l -5.657 -5.657 c -0.991 -0.991 -1.692 -2.164 -2.121 -3.411 c -0.658 -1.91 -0.658 -3.996 0 -5.906 c 0.296 -0.858 0.724 -1.677 1.285 -2.429 c -0.421 -0.061 -0.848 -0.104 -1.285 -0.104 s -0.864 0.042 -1.285 0.104 c -0.929 0.135 -1.811 0.411 -2.627 0.809 c -1.816 0.885 -3.291 2.36 -4.176 4.176 c -0.578 1.186 -0.912 2.51 -0.912 3.912 v 8 c 0 0.486 0.05 0.96 0.125 1.426 c 0.69 4.277 4.411 7.574 8.875 7.574 s 8.185 -3.297 8.875 -7.574 C 37.505 50.156 37.135 49.856 36.791 49.513 z" style="stroke: none; stroke-width: 1; stroke-dasharray: none; stroke-linecap: butt; stroke-linejoin: miter; stroke-miterlimit: 10; fill: #7FABDA; fill-rule: nonzero; opacity: 1;" transform=" matrix(1 0 0 1 0 0) " stroke-linecap="round" />
  <path d="M 50.439 20.132 c -0.276 0.383 -0.576 0.753 -0.92 1.097 l -5.657 5.657 c -0.991 0.991 -2.164 1.691 -3.411 2.121 c -1.91 0.658 -3.996 0.658 -5.906 0 c -0.858 -0.296 -1.677 -0.724 -2.429 -1.285 c -0.061 0.421 -0.103 0.848 -0.103 1.285 c 0 0.437 0.042 0.864 0.103 1.285 c 0.135 0.929 0.411 1.811 0.809 2.627 c 0.885 1.816 2.36 3.291 4.176 4.176 c 1.186 0.578 2.51 0.912 3.912 0.912 h 8 c 0.486 0 0.96 -0.05 1.426 -0.125 c 4.277 -0.69 7.574 -4.411 7.574 -8.875 S 54.716 20.821 50.439 20.132 z" style="stroke: none; stroke-width: 1; stroke-dasharray: none; stroke-linecap: butt; stroke-linejoin: miter; stroke-miterlimit: 10; fill: #A4E869; fill-rule: nonzero; opacity: 1;" transform=" matrix(1 0 0 1 0 0) " stroke-linecap="round" />
  <path d="M 49.519 8.5 C 46.363 5.344 41.4 5.044 37.888 7.58 c 0.075 0.466 0.125 0.94 0.125 1.426 v 8 c 0 1.402 -0.334 2.726 -0.912 3.912 c -0.885 1.816 -2.36 3.291 -4.176 4.176 c -0.816 0.398 -1.698 0.674 -2.627 0.809 c 0.255 0.341 0.527 0.673 0.836 0.982 s 0.641 0.581 0.982 0.836 c 0.752 0.561 1.571 0.99 2.429 1.285 c 1.91 0.658 3.996 0.658 5.906 0 c 1.247 -0.43 2.42 -1.13 3.411 -2.121 l 5.657 -5.657 c 0.344 -0.344 0.644 -0.714 0.92 -1.097 C 52.976 16.619 52.675 11.657 49.519 8.5 z" style="stroke: none; stroke-width: 1; stroke-dasharray: none; stroke-linecap: butt; stroke-linejoin: miter; stroke-miterlimit: 10; fill: #EFCE4A; fill-rule: nonzero; opacity: 1;" transform=" matrix(1 0 0 1 0 0) " stroke-linecap="round" />
  <path d="M 50.439 37.882 c -0.466 0.075 -0.94 0.125 -1.426 0.125 h -8 c -1.402 0 -2.726 -0.334 -3.912 -0.912 c -1.816 -0.885 -3.291 -2.36 -4.176 -4.176 c -0.398 -0.816 -0.674 -1.698 -0.809 -2.627 c -0.341 0.255 -0.673 0.527 -0.982 0.836 s -0.581 0.641 -0.836 0.982 c -0.561 0.752 -0.99 1.571 -1.285 2.429 c -0.658 1.91 -0.658 3.996 0 5.906 c 0.43 1.247 1.13 2.42 2.121 3.411 l 5.657 5.657 c 0.344 0.344 0.714 0.644 1.097 0.92 c 3.512 2.536 8.475 2.236 11.631 -0.92 S 52.976 41.394 50.439 37.882 z" style="stroke: none; stroke-width: 1; stroke-dasharray: none; stroke-linecap: butt; stroke-linejoin: miter; stroke-miterlimit: 10; fill: #61B872; fill-rule: nonzero; opacity: 1;" transform=" matrix(1 0 0 1 0 0) " stroke-linecap="round" />
  <path d="M 29.013 17.569 c -0.43 -1.247 -1.13 -2.42 -2.121 -3.411 L 21.235 8.5 c -0.344 -0.344 -0.714 -0.644 -1.097 -0.92 C 16.626 5.044 11.663 5.344 8.507 8.5 c -3.156 3.156 -3.456 8.117 -0.921 11.629 C 8.048 20.056 8.518 20.007 9 20.007 h 8 c 4.515 0 8.271 3.373 8.898 7.722 c 0.004 -0.003 0.008 -0.005 0.012 -0.008 c 0.341 -0.255 0.673 -0.527 0.982 -0.836 s 0.581 -0.641 0.836 -0.982 c 0.561 -0.752 0.99 -1.571 1.285 -2.429 C 29.671 21.564 29.671 19.478 29.013 17.569 z" style="stroke: none; stroke-width: 1; stroke-dasharray: none; stroke-linecap: butt; stroke-linejoin: miter; stroke-miterlimit: 10; fill: #ED7161; fill-rule: nonzero; opacity: 1;" transform=" matrix(1 0 0 1 0 0) " stroke-linecap="round" />
  <path d="M 17 20.007 H 9 c -0.482 0 -0.952 0.049 -1.414 0.123 c 0 0 0.001 0.001 0.001 0.002 c 0.276 0.383 0.576 0.753 0.92 1.097 l 5.657 5.657 c 0.991 0.991 2.164 1.691 3.411 2.121 c 1.91 -0.658 3.996 -0.658 5.906 0 c 0.854 -0.294 1.668 -0.721 2.417 -1.278 C 25.271 23.38 21.515 20.007 17 20.007 z" style="stroke: none; stroke-width: 1; stroke-dasharray: none; stroke-linecap: butt; stroke-linejoin: miter; stroke-miterlimit: 10; fill: #BF4D90; fill-rule: nonzero; opacity: 1;" transform=" matrix(1 0 0 1 0 0) " stroke-linecap="round" />
  <path d="M 26.892 31.128 c -0.309 -0.309 -0.641 -0.581 -0.982 -0.836 c -0.752 -0.561 -1.571 -0.99 -2.429 -1.285 c -1.91 -0.658 -3.996 -0.658 -5.906 0 c -1.247 0.43 -2.42 1.13 -3.411 2.121 l -5.657 5.657 c -0.344 0.344 -0.644 0.714 -0.92 1.097 c -2.536 3.512 -2.236 8.475 0.92 11.631 s 8.119 3.456 11.631 0.92 c -0.075 -0.466 -0.125 -0.94 -0.125 -1.426 v -8 c 0 -1.402 0.334 -2.726 0.912 -3.912 c 0.885 -1.816 2.36 -3.291 4.176 -4.176 c 0.816 -0.398 1.698 -0.674 2.627 -0.809 C 27.473 31.769 27.201 31.437 26.892 31.128 z" style="stroke: none; stroke-width: 1; stroke-dasharray: none; stroke-linecap: butt; stroke-linejoin: miter; stroke-miterlimit: 10; fill: #9777A8; fill-rule: nonzero; opacity: 1;" transform=" matrix(1 0 0 1 0 0) " stroke-linecap="round" />
</g>
  <g transform="translate(318.22 83.53) scale(2.46 1)">
   <text font-family="ADAMCG PRO" font-size="40" font-weight="normal" style="stroke: none; stroke-width: 1; stroke-dasharray: none; stroke-linecap: butt; stroke-linejoin: miter; stroke-miterlimit: 10; fill: #fa0303; fill-rule: nonzero; opacity: 1;" ><tspan x="-30.81" y="8.98" style="stroke: none; stroke-width: 0; stroke-dasharray: none; stroke-linecap: butt; stroke-linejoin: miter; stroke-miterlimit: 4; fill: #fa0303; fill-rule: ; opacity: 1;">M</tspan><tspan x="3.29" y="8.98" style="stroke: none; stroke-width: 0; stroke-dasharray: none; stroke-linecap: butt; stroke-linejoin: miter; stroke-miterlimit: 4; fill: #fa0303; fill-rule: ; opacity: 1;">Y</tspan></text>
 </g>
  <g transform="translate(543.16 83.53) scale(3.66 1)">
   <text font-family="Amerika Sans" font-size="40" font-weight="normal" style="stroke: none; stroke-width: 1; stroke-dasharray: none; stroke-linecap: butt; stroke-linejoin: miter; stroke-miterlimit: 10; fill: #f70828; fill-rule: nonzero; opacity: 1;" ><tspan x="-38.56" y="8.98" style="stroke: none; stroke-width: 0; stroke-dasharray: none; stroke-linecap: butt; stroke-linejoin: miter; stroke-miterlimit: 4; fill: #f70828; fill-rule: ; opacity: 1;">t</tspan><tspan x="-24.28" y="8.98" style="stroke: none; stroke-width: 0; stroke-dasharray: none; stroke-linecap: butt; stroke-linejoin: miter; stroke-miterlimit: 4; fill: #f70828; fill-rule: ; opacity: 1;">o</tspan><tspan x="-0.48" y="8.98" style="stroke: none; stroke-width: 0; stroke-dasharray: none; stroke-linecap: butt; stroke-linejoin: miter; stroke-miterlimit: 4; fill: #f70828; fill-rule: ; opacity: 1;">u</tspan><tspan x="22.8" y="8.98" style="stroke: none; stroke-width: 0; stroke-dasharray: none; stroke-linecap: butt; stroke-linejoin: miter; stroke-miterlimit: 4; fill: #f70828; fill-rule: ; opacity: 1;">r</tspan></text>
 </g>
  <g transform="translate(561.3 139.53) scale(1.75 1)">
   <text font-family="Diogenes" font-size="40" font-weight="normal" style="stroke: none; stroke-width: 1; stroke-dasharray: none; stroke-linecap: butt; stroke-linejoin: miter; stroke-miterlimit: 10; fill: #000000; fill-rule: nonzero; opacity: 1;" ><tspan x="-179.56" y="8.98" style="stroke: none; stroke-width: 0; stroke-dasharray: none; stroke-linecap: butt; stroke-linejoin: miter; stroke-miterlimit: 4; fill: #000000; fill-rule: ; opacity: 1;">u</tspan><tspan x="-161.08" y="8.98" style="stroke: none; stroke-width: 0; stroke-dasharray: none; stroke-linecap: butt; stroke-linejoin: miter; stroke-miterlimit: 4; fill: #000000; fill-rule: ; opacity: 1;">n</tspan><tspan x="-141.48" y="8.98" style="stroke: none; stroke-width: 0; stroke-dasharray: none; stroke-linecap: butt; stroke-linejoin: miter; stroke-miterlimit: 4; fill: #000000; fill-rule: ; opacity: 1;">b</tspan><tspan x="-123.44" y="8.98" style="stroke: none; stroke-width: 0; stroke-dasharray: none; stroke-linecap: butt; stroke-linejoin: miter; stroke-miterlimit: 4; fill: #000000; fill-rule: ; opacity: 1;">o</tspan><tspan x="-102.52" y="8.98" style="stroke: none; stroke-width: 0; stroke-dasharray: none; stroke-linecap: butt; stroke-linejoin: miter; stroke-miterlimit: 4; fill: #000000; fill-rule: ; opacity: 1;">x</tspan><tspan x="-85.08" y="8.98" style="stroke: none; stroke-width: 0; stroke-dasharray: none; stroke-linecap: butt; stroke-linejoin: miter; stroke-miterlimit: 4; fill: #000000; fill-rule: ; opacity: 1;"> </tspan><tspan x="-73.08" y="8.98" style="stroke: none; stroke-width: 0; stroke-dasharray: none; stroke-linecap: butt; stroke-linejoin: miter; stroke-miterlimit: 4; fill: #000000; fill-rule: ; opacity: 1;">y</tspan><tspan x="-49.84" y="8.98" style="stroke: none; stroke-width: 0; stroke-dasharray: none; stroke-linecap: butt; stroke-linejoin: miter; stroke-miterlimit: 4; fill: #000000; fill-rule: ; opacity: 1;">o</tspan><tspan x="-28.92" y="8.98" style="stroke: none; stroke-width: 0; stroke-dasharray: none; stroke-linecap: butt; stroke-linejoin: miter; stroke-miterlimit: 4; fill: #000000; fill-rule: ; opacity: 1;">u</tspan><tspan x="-10.44" y="8.98" style="stroke: none; stroke-width: 0; stroke-dasharray: none; stroke-linecap: butt; stroke-linejoin: miter; stroke-miterlimit: 4; fill: #000000; fill-rule: ; opacity: 1;">r</tspan><tspan x="3.44" y="8.98" style="stroke: none; stroke-width: 0; stroke-dasharray: none; stroke-linecap: butt; stroke-linejoin: miter; stroke-miterlimit: 4; fill: #000000; fill-rule: ; opacity: 1;"> </tspan><tspan x="15.44" y="8.98" style="stroke: none; stroke-width: 0; stroke-dasharray: none; stroke-linecap: butt; stroke-linejoin: miter; stroke-miterlimit: 4; fill: #000000; fill-rule: ; opacity: 1;">b</tspan><tspan x="33.48" y="8.98" style="stroke: none; stroke-width: 0; stroke-dasharray: none; stroke-linecap: butt; stroke-linejoin: miter; stroke-miterlimit: 4; fill: #000000; fill-rule: ; opacity: 1;">u</tspan><tspan x="51.96" y="8.98" style="stroke: none; stroke-width: 0; stroke-dasharray: none; stroke-linecap: butt; stroke-linejoin: miter; stroke-miterlimit: 4; fill: #000000; fill-rule: ; opacity: 1;">c</tspan><tspan x="68.72" y="8.98" style="stroke: none; stroke-width: 0; stroke-dasharray: none; stroke-linecap: butt; stroke-linejoin: miter; stroke-miterlimit: 4; fill: #000000; fill-rule: ; opacity: 1;">k</tspan><tspan x="88.4" y="8.98" style="stroke: none; stroke-width: 0; stroke-dasharray: none; stroke-linecap: butt; stroke-linejoin: miter; stroke-miterlimit: 4; fill: #000000; fill-rule: ; opacity: 1;">e</tspan><tspan x="106.4" y="8.98" style="stroke: none; stroke-width: 0; stroke-dasharray: none; stroke-linecap: butt; stroke-linejoin: miter; stroke-miterlimit: 4; fill: #000000; fill-rule: ; opacity: 1;">t</tspan><tspan x="123.92" y="8.98" style="stroke: none; stroke-width: 0; stroke-dasharray: none; stroke-linecap: butt; stroke-linejoin: miter; stroke-miterlimit: 4; fill: #000000; fill-rule: ; opacity: 1;"> </tspan><tspan x="135.92" y="8.98" style="stroke: none; stroke-width: 0; stroke-dasharray: none; stroke-linecap: butt; stroke-linejoin: miter; stroke-miterlimit: 4; fill: #000000; fill-rule: ; opacity: 1;">l</tspan><tspan x="142.08" y="8.98" style="stroke: none; stroke-width: 0; stroke-dasharray: none; stroke-linecap: butt; stroke-linejoin: miter; stroke-miterlimit: 4; fill: #000000; fill-rule: ; opacity: 1;">i</tspan><tspan x="149.12" y="8.98" style="stroke: none; stroke-width: 0; stroke-dasharray: none; stroke-linecap: butt; stroke-linejoin: miter; stroke-miterlimit: 4; fill: #000000; fill-rule: ; opacity: 1;">s</tspan><tspan x="162.04" y="8.98" style="stroke: none; stroke-width: 0; stroke-dasharray: none; stroke-linecap: butt; stroke-linejoin: miter; stroke-miterlimit: 4; fill: #000000; fill-rule: ; opacity: 1;">t</tspan></text>
 </g>
</svg>